<svg display="block" role="presentation" viewBox="0 0 257 78" xmlns="http://www.w3.org/2000/svg"><path d="M 0 19.537 L 0 57.326 L 19.261 57.326 L 19.261 19.537 Z M 38.61 78.261 L 38.61 59.012 M 38.61 78.261 C 59.64 77.707 76.579 60.387 76.579 39.164 C 76.579 17.941 59.353 0.322 38.079 0.055 L 38.079 0 L 19.46 0 L 19.46 19.316 L 38.079 19.316 C 48.771 19.571 57.396 28.375 57.396 39.164 C 57.396 49.953 49.059 58.468 38.61 59.012 Z" fill="rgb(255, 255, 255)" height="78.26087395709493px" id="JOkNAXehA" transform="translate(0 -0.13)" width="76.5792400990363px"/><path d="M 0.011 0 L 11.3 0 C 15.314 0 18.763 0.765 21.649 2.306 C 24.546 3.836 26.746 6.065 28.261 8.959 C 29.776 11.864 30.528 15.324 30.528 19.338 C 30.528 23.352 29.765 26.922 28.228 29.805 C 26.691 32.688 24.447 34.883 21.472 36.403 C 18.498 37.922 14.938 38.676 10.78 38.676 L 0 38.676 L 0 0 Z M 18.874 32.877 C 20.975 31.624 22.556 29.85 23.639 27.554 C 24.723 25.259 25.254 22.52 25.254 19.338 C 25.254 15.923 24.712 13.084 23.639 10.8 C 22.567 8.527 20.975 6.808 18.874 5.655 C 16.773 4.502 14.197 3.914 11.134 3.914 L 5.009 3.914 L 5.009 34.75 L 11.19 34.75 C 14.219 34.75 16.773 34.13 18.874 32.877 Z" fill="rgb(255, 255, 255)" height="38.675706459542965px" id="n9MVbuLEM" transform="translate(93.518 19.119)" width="30.527771739130415px"/><path d="M 0 0 L 5.219 0 L 5.219 5.921 L 0 5.921 Z M 0.166 9.846 L 5.042 9.846 L 5.042 36.358 L 0.166 36.358 Z" fill="rgb(255, 255, 255)" height="36.35836916882059px" id="TWTKJttLv" transform="translate(128.646 21.448)" width="5.218858695652244px"/><path d="M 0 0 L 4.876 0 L 4.876 38.687 L 0 38.687 Z" fill="rgb(255, 255, 255)" height="38.68679347826088px" id="AHRlyATYL" transform="translate(139.371 19.119)" width="4.875978260869715px"/><path d="M 0 0 L 5.219 0 L 5.219 5.921 L 0 5.921 Z M 0.177 9.846 L 5.053 9.846 L 5.053 36.358 L 0.177 36.358 Z" fill="rgb(255, 255, 255)" height="36.35836916882059px" id="hQH1fCl58" transform="translate(149.742 21.448)" width="5.218858695652244px"/><path d="M 5.031 35.804 C 2.93 34.274 1.659 32.156 1.205 29.461 L 6.025 29.461 C 6.479 31.169 7.253 32.489 8.349 33.42 C 9.443 34.351 10.99 34.817 13.004 34.817 C 15.27 34.817 17.027 34.141 18.276 32.799 C 19.527 31.457 20.145 29.55 20.145 27.077 L 20.145 20.757 L 20.709 20.757 C 19.913 22.542 18.697 24.006 17.05 25.17 C 15.402 26.323 13.357 26.911 10.89 26.911 C 8.846 26.911 6.999 26.39 5.329 25.348 C 3.66 24.305 2.355 22.775 1.415 20.768 C 0.465 18.761 0 16.333 0 13.483 C 0 10.634 0.509 8.205 1.537 6.176 C 2.554 4.147 3.936 2.617 5.683 1.563 C 7.419 0.521 9.355 0 11.466 0 C 13.855 0 15.855 0.565 17.481 1.708 C 19.106 2.85 20.223 4.247 20.831 5.921 L 20.089 5.921 L 21.107 0.577 L 24.911 0.577 L 24.911 26.523 C 24.911 30.127 23.838 32.965 21.705 35.028 C 19.571 37.09 16.662 38.132 13.004 38.132 C 9.785 38.132 7.132 37.367 5.031 35.826 Z M 17.039 21.833 C 18.431 20.657 19.437 19.216 20.045 17.508 L 20.045 9.314 C 19.592 7.606 18.686 6.187 17.326 5.045 C 15.966 3.903 14.373 3.337 12.56 3.337 C 10.25 3.337 8.437 4.225 7.11 6.01 C 5.782 7.795 5.119 10.279 5.119 13.461 C 5.119 16.643 5.75 19.127 7.021 20.912 C 8.293 22.698 10.062 23.585 12.329 23.585 C 14.065 23.585 15.635 22.997 17.039 21.822 Z" fill="rgb(255, 255, 255)" height="38.13244565217392px" id="F2K8Yr9WI" transform="translate(158.864 30.729)" width="24.910597826086786px"/><path d="M 6.07 25.935 C 4.18 24.782 2.698 23.152 1.614 21.068 C 0.532 18.983 0 16.577 0 13.838 C 0 11.099 0.541 8.704 1.614 6.609 C 2.698 4.524 4.18 2.905 6.07 1.741 C 7.961 0.588 10.117 0 12.538 0 C 14.961 0 16.895 0.532 18.698 1.597 C 20.499 2.661 21.871 4.125 22.844 6.01 C 23.806 7.884 24.292 10.035 24.292 12.463 C 24.292 13.45 24.271 14.115 24.236 14.459 L 3.417 14.459 L 3.417 11.388 L 20.035 11.388 L 19.295 12.984 L 19.295 11.787 C 19.295 9.469 18.719 7.462 17.57 5.755 C 16.42 4.047 14.739 3.194 12.549 3.194 C 10.88 3.194 9.497 3.648 8.382 4.557 C 7.265 5.467 6.435 6.731 5.883 8.338 C 5.33 9.946 5.064 11.776 5.064 13.827 C 5.064 15.878 5.341 17.697 5.883 19.294 C 6.435 20.89 7.265 22.132 8.382 23.019 C 9.497 23.906 10.891 24.361 12.549 24.361 C 14.362 24.361 15.845 23.873 17.005 22.886 C 18.155 21.899 18.996 20.613 19.526 19.016 L 23.441 20.325 C 22.611 22.52 21.262 24.294 19.383 25.647 C 17.514 26.989 15.248 27.665 12.605 27.665 C 10.151 27.665 7.973 27.089 6.082 25.935 Z" fill="rgb(255, 255, 255)" height="27.665217391304353px" id="rvvt7i1_y" transform="translate(187.523 30.695)" width="24.29184782608715px"/><path d="M 0.011 0.565 L 4.777 0.565 L 4.777 6.254 L 4.433 5.688 C 5.23 4.091 6.479 2.75 8.182 1.652 C 9.885 0.554 11.809 0 13.965 0 C 16.73 0 18.818 0.809 20.234 2.417 C 21.649 4.025 22.357 6.254 22.357 9.103 L 22.357 27.077 L 17.426 27.077 L 17.426 10.068 C 17.426 7.95 16.961 6.353 16.032 5.289 C 15.104 4.225 13.865 3.692 12.318 3.692 C 10.769 3.692 9.354 4.202 7.973 5.234 C 6.59 6.254 5.561 7.529 4.877 9.048 L 4.877 27.077 L 0 27.077 L 0 0.565 Z" fill="rgb(255, 255, 255)" height="27.07744565217392px" id="VuO3vYrYc" transform="translate(215.651 30.729)" width="22.356521739130415px"/><path d="M 6.302 32.5 C 4.865 31.114 4.146 28.907 4.146 25.869 L 4.146 11.365 L 0 11.365 L 0 7.784 L 2.775 7.784 C 3.494 7.784 4.013 7.562 4.334 7.13 C 4.655 6.697 4.886 5.832 5.041 4.546 L 5.495 0 L 9.065 0 L 9.065 7.795 L 15.933 7.795 L 15.933 11.377 L 9.065 11.377 L 9.065 25.825 C 9.065 27.687 9.442 29.04 10.205 29.894 C 10.957 30.748 12.117 31.169 13.666 31.169 C 14.728 31.169 15.667 31.058 16.507 30.825 L 16.507 34.063 C 16.132 34.218 15.611 34.34 14.948 34.429 C 14.284 34.518 13.632 34.573 12.991 34.573 C 9.962 34.573 7.74 33.886 6.302 32.5 Z" fill="rgb(255, 255, 255)" height="34.573206521739145px" id="F08KTAGsc" transform="translate(240.276 23.51)" width="16.506521739130477px"/></svg>